<svg id="Layer_1" data-name="Layer 1" xmlns="http://www.w3.org/2000/svg" viewBox="0 0 628.82 743.92"><defs><style>.cls-1{fill:#2c365e;}.cls-2{fill:#a66cff;}.cls-3{fill:#fff;}</style></defs><path class="cls-1" d="M773.92,609.5a114.34,114.34,0,0,0-28.65-4l-.7,0h-1.09l-.72,0a114.66,114.66,0,0,0-23.14,2.7l0-192.81a80.49,80.49,0,0,0,54.29-1.94Z" transform="translate(-435.59 -258.32)"/><path class="cls-1" d="M719.59,399.6l-2.4,2.13-9.72,8.62-120.1,106.5L578.15,525l-9.39,8.33a56.7,56.7,0,0,0-43-34.47l10.89-9.67,10.16-9L670.28,370.77l9.47-8.4,9.77-8.67a56.49,56.49,0,0,0,84.36,33V413.4a80.49,80.49,0,0,1-54.29,1.94Z" transform="translate(-435.59 -258.32)"/><path class="cls-1" d="M516,865.31a56.21,56.21,0,0,0-33.68,11.15V599.7a56.5,56.5,0,0,0,54.3,7.7V869.2A56.34,56.34,0,0,0,516,865.31Z" transform="translate(-435.59 -258.32)"/><path class="cls-1" d="M927.48,921.84a56.23,56.23,0,0,0,6.79,26.85H565.73a56.46,56.46,0,0,0-.33-54.29H934.6A56.11,56.11,0,0,0,927.48,921.84Z" transform="translate(-435.59 -258.32)"/><path class="cls-1" d="M1011.14,604.39V872.26a56.45,56.45,0,0,0-54.29,0V604.38a56.45,56.45,0,0,0,54.29,0Z" transform="translate(-435.59 -258.32)"/><path class="cls-1" d="M756.5,678a11.93,11.93,0,0,1-11.93,11.94H744a31.18,31.18,0,0,0-30.61,31.14V835a12,12,0,0,1-11.94,12h-60.6a12,12,0,0,1-12-12v-114a115.83,115.83,0,0,1,90.7-112.92,114.66,114.66,0,0,1,23.14-2.7c.43,0,.84,0,1.26,0h.55l.7,0a11.95,11.95,0,0,1-.7,23.87h-1.09a90.42,90.42,0,0,0-21.21,2.74,91.9,91.9,0,0,0-69.46,89v102h36.71v-102a55.09,55.09,0,0,1,52.91-55c.7-.05,1.42-.06,2.14-.06A12,12,0,0,1,756.5,678Z" transform="translate(-435.59 -258.32)"/><path class="cls-2" d="M748.16,677.44a43.15,43.15,0,0,1,43.1,43.09v114h60.6v-114a103.81,103.81,0,0,0-103.7-103.69Z" transform="translate(-435.59 -258.32)"/><path class="cls-1" d="M736.22,677.44a11.94,11.94,0,0,0,11.94,11.94h.54a31.18,31.18,0,0,1,30.61,31.14v114a12,12,0,0,0,11.94,12h60.6a12,12,0,0,0,11.95-12v-114a115.83,115.83,0,0,0-90.7-112.92,114.58,114.58,0,0,0-23.14-2.7c-.42,0-.84,0-1.26,0h-.54l-.71,0a11.95,11.95,0,0,0,.71,23.87h1.08a90.42,90.42,0,0,1,21.21,2.74,91.9,91.9,0,0,1,69.46,89v102H803.2v-102a55.09,55.09,0,0,0-52.9-55c-.71,0-1.43-.06-2.14-.06A12,12,0,0,0,736.22,677.44Z" transform="translate(-435.59 -258.32)"/><path class="cls-1" d="M553.36,547a36.87,36.87,0,0,1,.89,8.12,37.48,37.48,0,1,1-.89-8.12Z" transform="translate(-435.59 -258.32)"/><path class="cls-1" d="M578.15,525a68.53,68.53,0,1,0,6.71,29.6A68.68,68.68,0,0,0,578.15,525ZM536.63,607.4A56.52,56.52,0,1,1,516.4,498.1a56.44,56.44,0,0,1,52.36,35.25,56.51,56.51,0,0,1-32.13,74Z" transform="translate(-435.59 -258.32)"/><path class="cls-1" d="M587.37,516.85a80.82,80.82,0,0,0-40.52-36.64,80.39,80.39,0,1,0-10.22,152.25,80.42,80.42,0,0,0,50.74-115.61ZM536.63,607.4A56.52,56.52,0,1,1,516.4,498.1a56.44,56.44,0,0,1,52.36,35.25,56.51,56.51,0,0,1-32.13,74Z" transform="translate(-435.59 -258.32)"/><circle class="cls-2" cx="81.18" cy="296.8" r="25.53"/><path class="cls-2" d="M553.36,547a37.47,37.47,0,1,0,.89,8.12A36.87,36.87,0,0,0,553.36,547Zm-36.58,21.71a13.59,13.59,0,1,1,13.58-13.59A13.6,13.6,0,0,1,516.78,568.71Z" transform="translate(-435.59 -258.32)"/><path class="cls-1" d="M553.86,922.33a37.7,37.7,0,1,1-12.52-27.93A37.37,37.37,0,0,1,553.86,922.33Z" transform="translate(-435.59 -258.32)"/><path class="cls-1" d="M578.75,894.4a68.66,68.66,0,1,0,5.72,27.44A68.64,68.64,0,0,0,578.75,894.4Zm-62.74,84a56.52,56.52,0,1,1,49.72-29.66A56.58,56.58,0,0,1,516,978.35Z" transform="translate(-435.59 -258.32)"/><path class="cls-1" d="M591.59,894.4a80.67,80.67,0,0,0-55-50.29A80.41,80.41,0,1,0,516,1002.24,80.42,80.42,0,0,0,591.59,894.4Zm-75.58,84a56.52,56.52,0,1,1,49.72-29.66A56.58,56.58,0,0,1,516,978.35Z" transform="translate(-435.59 -258.32)"/><path class="cls-2" d="M553.86,922.33a37.7,37.7,0,1,1-12.52-27.93A37.37,37.37,0,0,1,553.86,922.33Z" transform="translate(-435.59 -258.32)"/><path class="cls-1" d="M1011.14,896.11a37.46,37.46,0,1,1-26.77-11.26A37.44,37.44,0,0,1,1011.14,896.11Z" transform="translate(-435.59 -258.32)"/><path class="cls-1" d="M1011.14,859a68.48,68.48,0,1,0,41.33,62.89A68.32,68.32,0,0,0,1011.14,859ZM984,978.35a56.52,56.52,0,1,1,56.52-56.51A56.59,56.59,0,0,1,984,978.35Z" transform="translate(-435.59 -258.32)"/><path class="cls-1" d="M1011.14,846.13a80.42,80.42,0,1,0,53.27,75.71A80,80,0,0,0,1011.14,846.13ZM984,978.35a56.52,56.52,0,1,1,56.52-56.51A56.59,56.59,0,0,1,984,978.35Z" transform="translate(-435.59 -258.32)"/><path class="cls-2" d="M1021.86,922.33a37.52,37.52,0,1,1-10.72-26.22A37.52,37.52,0,0,1,1021.86,922.33Z" transform="translate(-435.59 -258.32)"/><path class="cls-1" d="M984.37,517.84a37.46,37.46,0,1,0,37.49,37.48A37.52,37.52,0,0,0,984.37,517.84Z" transform="translate(-435.59 -258.32)"/><path class="cls-1" d="M984,474.4a80.41,80.41,0,0,0-27.15,156.1,80.34,80.34,0,0,0,54.29,0A80.42,80.42,0,0,0,984,474.4Zm27.14,130a56.52,56.52,0,1,1,29.38-49.57A56.18,56.18,0,0,1,1011.14,604.39Z" transform="translate(-435.59 -258.32)"/><path class="cls-2" d="M1021.86,555.32a37.48,37.48,0,1,1-37.49-37.48A37.4,37.4,0,0,1,1021.86,555.32Z" transform="translate(-435.59 -258.32)"/><path class="cls-1" d="M781.89,339.24a37.48,37.48,0,0,1-75,0c0-.33,0-.65,0-1a37.48,37.48,0,0,1,74.95,1Z" transform="translate(-435.59 -258.32)"/><path class="cls-1" d="M744,270.26a68.47,68.47,0,0,0-26.84,131.47c.79.34,1.6.67,2.4,1A68.47,68.47,0,1,0,744,270.26Zm29.85,116.45a56.51,56.51,0,1,1,26.67-48A56.07,56.07,0,0,1,773.88,386.71Z" transform="translate(-435.59 -258.32)"/><path class="cls-1" d="M744,258.32a80.41,80.41,0,1,0,80.41,80.42A80.51,80.51,0,0,0,744,258.32Zm29.85,128.39a56.51,56.51,0,1,1,26.67-48A56.07,56.07,0,0,1,773.88,386.71Z" transform="translate(-435.59 -258.32)"/><path class="cls-2" d="M781.89,339.24a37.48,37.48,0,0,1-75,0c0-.33,0-.65,0-1a37.48,37.48,0,0,1,74.95,1Z" transform="translate(-435.59 -258.32)"/><path class="cls-3" d="M-585,98" transform="translate(-435.59 -258.32)"/></svg>