<svg width="513" height="416" viewBox="0 0 513 416" fill="none" xmlns="http://www.w3.org/2000/svg">
<rect y="105.985" width="282.733" height="268.552" rx="15" transform="rotate(-22.0156 0 105.985)" fill="#2C365E"/>
<rect x="239.506" y="22" width="282.733" height="268.552" rx="15" transform="rotate(15 239.506 22)" fill="#A66CFF"/>
<circle cx="268" cy="66" r="15" fill="#2C365E"/>
<circle cx="305" cy="75" r="15" fill="#2C365E"/>
<circle cx="342" cy="85" r="15" fill="#2C365E"/>
<rect x="134.861" y="78" width="319" height="303" rx="15" transform="rotate(6.60689 134.861 78)" fill="#E9E9E9"/>
<mask id="mask0_1088_3124" style="mask-type:luminance" maskUnits="userSpaceOnUse" x="281" y="98" width="170" height="167">
<path d="M436.842 112.977L312.672 98.5951C304.443 97.642 296.999 103.54 296.046 111.77L282.009 232.96C281.056 241.189 286.954 248.633 295.183 249.586L419.353 263.968C427.583 264.921 435.026 259.023 435.98 250.793L450.016 129.603C450.97 121.374 445.071 113.93 436.842 112.977Z" fill="white"/>
</mask>
<g mask="url(#mask0_1088_3124)">
<path d="M319.794 102.53C319.938 98.9427 320.227 95.3219 320.647 91.6961C329.797 12.6942 401.257 -43.9301 480.259 -34.7796C559.261 -25.6291 615.885 45.8305 606.734 124.832C597.584 203.834 526.124 260.459 447.122 251.308C383.289 243.915 334.064 195.832 322.344 135.966" stroke="#2C365E" stroke-width="3" stroke-miterlimit="10" stroke-linecap="round" stroke-linejoin="round"/>
<path d="M381.672 196.866C372.572 188.433 364.807 178.635 358.678 167.848" stroke="#B188F1" stroke-width="3" stroke-miterlimit="10" stroke-linecap="round"/>
<path d="M349.714 148.155C343.849 131.439 341.587 113.158 343.763 94.3734C351.434 28.1461 411.343 -19.3262 477.571 -11.6554C543.798 -3.98455 591.28 55.9265 583.61 122.154C575.939 188.381 516.029 235.853 449.801 228.183C430.252 225.918 412.327 219.101 396.988 208.908" stroke="#B188F1" stroke-width="3" stroke-miterlimit="10" stroke-linecap="round"/>
<path d="M382.511 54.2957C402.156 24.79 437.264 7.10198 474.893 11.4603C528.355 17.6527 566.676 66.0129 560.483 119.476C554.291 172.938 505.931 211.259 452.468 205.066C399.006 198.874 360.685 150.514 366.878 97.051C367.564 91.1206 368.774 85.3716 370.451 79.8478" stroke="#2C365E" stroke-width="3" stroke-miterlimit="10" stroke-linecap="round" stroke-linejoin="round"/>
<path d="M449.599 35.419C456.869 34.0162 464.478 33.6794 472.226 34.5769C512.924 39.2907 542.083 76.1001 537.37 116.788C532.657 157.476 495.847 186.645 455.159 181.932C414.471 177.219 385.302 140.409 390.015 99.7206C392.722 76.3469 406.012 56.776 424.553 45.2425" stroke="#B188F1" stroke-width="3" stroke-miterlimit="10" stroke-linecap="round"/>
<path d="M457.824 158.825C485.749 162.059 511.008 142.044 514.242 114.119C517.477 86.1948 497.461 60.9354 469.537 57.701C441.612 54.4666 416.353 74.482 413.118 102.407C409.884 130.331 429.899 155.591 457.824 158.825Z" stroke="#2C365E" stroke-width="3" stroke-miterlimit="10" stroke-linecap="round" stroke-linejoin="round"/>
<path d="M319.819 128.395C322.013 128.649 323.998 127.076 324.252 124.882C324.506 122.687 322.934 120.702 320.739 120.448C318.545 120.194 316.56 121.767 316.305 123.961C316.051 126.156 317.624 128.141 319.819 128.395Z" fill="#2C365E"/>
<path d="M460.392 140.851C478.458 142.944 494.799 129.995 496.892 111.929C498.984 93.8627 486.035 77.521 467.969 75.4285C449.903 73.336 433.561 86.285 431.469 104.351C429.376 122.417 442.326 138.759 460.392 140.851Z" fill="#B188F1"/>
</g>
<path d="M94.3887 262.42L36.2148 220.401L30.4741 228.349L88.648 270.368L94.3887 262.42Z" fill="#A66CFF"/>
<path d="M36.2148 220.401L24.5679 219.363L30.4741 228.349L36.2148 220.401Z" fill="#6951AF"/>
<path d="M106.264 270.211L94.7617 261.903L88.3209 270.82L99.823 279.128L106.264 270.211Z" fill="#6951AF"/>
</svg>
